<?xml version="1.0" encoding="UTF-8"?>
<svg id="_Слой_1" data-name="Слой 1" xmlns="http://www.w3.org/2000/svg" viewBox="0 0 580.55 670.35">
  <defs>
    <style>
      .cls-1 {
        stroke: #ffffff;
      }

      .cls-1, .cls-2 {
        stroke-width: 10px;
      }

      .cls-1, .cls-2, .cls-3, .cls-4 {
        fill: none;
        stroke-miterlimit: 10;
      }

      .cls-2, .cls-3, .cls-4 {
        fill-rule: evenodd;
        stroke: #ffffff;
      }

      .cls-3 {
        stroke-width: 7px;
      }

      .cls-4 {
        stroke-width: 2px;
      }
    </style>
  </defs>
  <path class="cls-4" d="M290.45,664.57h-.65s-.75-175.82-.75-175.82h.65s.75,175.82,.75,175.82Z"/>
  <path class="cls-4" d="M418.07,263.83l-.36-.62,157.48-92.74,.36,.62-157.48,92.74Z"/>
  <path class="cls-4" d="M160.52,260.18l-.35,.61L5,171.09l.35-.61,155.17,89.71Z"/>
  <path class="cls-3" d="M341.87,132.74l-.6,.31-51.92-90.45,.6-.31,51.92,90.45Z"/>
  <path class="cls-3" d="M238.62,134.33l-.58-.32,50.73-92.03,.58,.32-50.73,92.03Z"/>
  <path class="cls-3" d="M495.09,387.17l.58-.34,52.73,90.69-.58,.34-52.73-90.69Z"/>
  <path class="cls-3" d="M140.35,477.13v.22H31.36v-.22h108.99Z"/>
  <path class="cls-3" d="M439.55,478.62v-.28h108.27v.28h-108.27Z"/>
  <path class="cls-3" d="M83.16,389.6l.53,.32-51.8,85.5-.53-.32,51.8-85.5Z"/>
  <path class="cls-2" d="M289.96,336.89c-41.53,70.55-18,161.41,52.56,202.94,70.55,41.53,161.41,18,202.94-52.56,41.53-70.55,18-161.41-52.56-202.94-70.55-41.53-161.41-18-202.94,52.56Z"/>
  <path class="cls-2" d="M35.1,186.89c-41.53,70.55-18,161.41,52.56,202.94,70.55,41.53,161.41,18,202.94-52.56,41.53-70.55,18-161.41-52.56-202.94-70.55-41.53-161.41-18-202.94,52.56Z"/>
  <path class="cls-2" d="M289.95,335.61c41.53,70.55,18,161.41-52.56,202.94-70.55,41.53-161.41,18-202.94-52.56-41.53-70.55-18-161.41,52.56-202.94,70.55-41.53,161.41-18,202.94,52.56Z"/>
  <path class="cls-2" d="M544.81,185.6c41.53,70.55,18,161.41-52.56,202.94-70.55,41.53-161.41,18-202.94-52.56-41.53-70.55-18-161.41,52.56-202.94,70.55-41.53,161.41-18,202.94,52.56Z"/>
  <path class="cls-2" d="M289.63,335.42c81.87,0,148.23,66.37,148.23,148.23s-66.37,148.23-148.23,148.23-148.23-66.37-148.23-148.23,66.37-148.23,148.23-148.23Z"/>
  <path class="cls-2" d="M289.63,39.69c81.87,0,148.23,66.37,148.23,148.23s-66.37,148.23-148.23,148.23-148.23-66.37-148.23-148.23S207.77,39.69,289.63,39.69Z"/>
  <path class="cls-1" d="M575.55,499.87l-285.28,164.7L5,499.87V170.47L290.28,5.77l285.28,164.7V499.87Zm0,0l-285.28,164.7"/>
</svg>